# AST/ASF file generated using VICON BodyLanguage
# -----------------------------------------------
:version 1.10
:name VICON
:units
  mass 1.0
  length 0.45
  angle deg
:documentation
   .ast/.asf automatically generated from VICON data using
   VICON BodyBuilder and BodyLanguage model FoxedUp or BRILLIANT.MOD
:root
   order TX TY TZ RX RY RZ
   axis XYZ
   position 0 0 0  
   orientation 0 0 0 
:bonedata
  begin
     id 1 
     name lhipjoint
     direction 0.677091 -0.635792 0.370561 
     length 2.74323 
     axis 0 0 0  XYZ
  end
  begin
     id 2 
     name lfemur
     direction 0.34202 -0.939693 0  
     length 7.44995  
     axis 0 0 20  XYZ
    dof rx ry rz
    limits (-160.0 20.0)
           (-70.0 70.0)
           (-60.0 70.0)
  end
  begin
     id 3 
     name ltibia
     direction 0.34202 -0.939693 0   
     length 7.34467   
     axis 0 0 20   XYZ
    dof rx
    limits (-10.0 170.0)
  end
  begin
     id 4 
     name lfoot
     direction 0.101953 -0.280114 0.954537   
     length 1.72105   
     axis -90 7.62852e-016 20   XYZ
    dof rx rz
    limits (-45.0 90.0)
           (-70.0 20.0)
  end
  begin
     id 5 
     name ltoes
     direction 1.53537e-011 -4.21915e-011 1   
     length 0.865872   
     axis -90 7.62852e-016 20   XYZ
    dof rx
    limits (-90.0 20.0)
  end
  begin
     id 6 
     name rhipjoint
     direction -0.695735 -0.620586 0.361699   
     length 2.81045  
     axis 0 0 0  XYZ 
  end
  begin
     id 7 
     name rfemur
     direction -0.34202 -0.939693 0   
     length 7.29387   
     axis 0 0 -20   XYZ
    dof rx ry rz
    limits (-160.0 20.0)
           (-70.0 70.0)
           (-70.0 60.0)
  end
  begin
     id 8 
     name rtibia
     direction -0.34202 -0.939693 0   
     length 7.44935   
     axis 0 0 -20   XYZ
    dof rx
    limits (-10.0 170.0)
 end
 begin
     id 9 
     name rfoot
     direction -0.104163 -0.286184 0.952496   
     length 1.77731  
     axis -90 -7.62852e-016 -20   XYZ
    dof rx rz
    limits (-45.0 90.0)
           (-20.0 70.0)
  end
  begin
     id 10 
     name rtoes
     direction -1.5355e-011 -4.21888e-011 1   
     length 0.892424   
     axis -90 -7.62852e-016 -20   XYZ
    dof rx
    limits (-90.0 20.0)
  end
  begin
     id 11 
     name lowerback
     direction 0.0100202 0.997226 -0.0737589   
     length 2.16892   
     axis 0 0 0   XYZ
    dof rx ry rz
    limits (-20.0 45.0)
           (-30.0 30.0)
           (-30.0 30.0)
  end
  begin
     id 12 
     name upperback
     direction 0.00432398 0.999988 -0.00215019   
     length 2.17326   
     axis 0 0 0   XYZ
    dof rx ry rz
    limits (-20.0 45.0)
           (-30.0 30.0)
           (-30.0 30.0)
  end
  begin
     id 13 
     name thorax
     direction -0.00195047 0.999485 0.0320434   
     length 2.18139   
     axis 0 0 0   XYZ
    dof rx ry rz
    limits (-20.0 45.0)
           (-30.0 30.0)
           (-30.0 30.0)
  end
  begin
     id 14 
     name lowerneck
     direction 0.00782762 0.986241 0.165128   
     length 1.88415   
     axis 0 0 0   XYZ
    dof rx ry rz
    limits (-20.0 45.0)
           (-30.0 30.0)
           (-30.0 30.0)
  end
  begin
     id 15 
     name upperneck
     direction 0.00988667 0.981098 -0.193258   
     length 1.9242   
     axis 0 0 0   XYZ
    dof rx ry rz
    limits (-20.0 45.0)
           (-30.0 30.0)
           (-30.0 30.0)
  end
  begin
     id 16
     name head
     direction 0.00252199 0.996513 -0.0833958  
     length 1.93887  
     axis 0 0 0   XYZ
    dof rx ry rz
    limits (-20.0 45.0)
           (-30.0 30.0)
           (-30.0 30.0)
  end
  begin
     id 17 
     name lclavicle
     direction 0.929492 0.368193 -0.0218667  
     length 3.5955  
     axis 0 0 0   XYZ
    dof ry rz
    limits (-20.0 10.0)
           (0.0 20.0)
  end
  begin
     id 18 
     name lhumerus
     direction 1 -4.48972e-011 1.41911e-027   
     length 5.2795   
     axis 180 -30 -90   XYZ
    dof rx ry rz
    limits (-60.0 90.0)
           (-90.0 90.0)
           (-90.0 90.0)
  end
  begin
     id 19
     name lradius
     direction 1 -4.48963e-011 7.05772e-027   
     length 3.53504   
     axis 180 -30 -90   XYZ
    dof rx
    limits (-10.0 170.0)
  end
  begin
     id 20
     name lwrist
     direction 1 -4.48957e-011 9.54866e-027   
     length 1.76752   
     axis -7.69462e-015 90 90   XYZ
    dof ry
    limits (-180.0 0.0)
 end
  begin
     id 21 
     name lhand
     direction 1 -4.48979e-011 1.90973e-026   
     length 0.667948   
     axis -1.21857e-014 90 90   XYZ
    dof rx rz
    limits (-90.0 90.0)
           (-45.0 45.0)
  end
  begin
     id 22 
     name lfingers
     direction 1 -4.48987e-011 3.81946e-026   
     length 0.538517   
     axis -2.43714e-014 90 90   XYZ
    dof rx
    limits (0.0 90.0)
  end
  begin
     id 23
     name lthumb
     direction 0.707107 -6.34962e-011 0.707107   
     length 0.773206   
     axis -90 45 2.85299e-015   XYZ
    dof rx rz
    limits (-45.0 45.0)
           (-45.0 45.0)
  end
  begin
     id 24 
     name rclavicle
     direction -0.898763 0.414256 -0.143584   
     length 3.5176  
     axis 0 0 0   XYZ 
    dof ry rz
    limits (-10.0 20.0)
           (-20.0 0.0)
  end
  begin
     id 25 
     name rhumerus
     direction -1 -4.48971e-011 1.129e-027  
     length 5.25035   
     axis 180 30 90   XYZ
    dof rx ry rz
    limits (-90.0 60.0)
           (-90.0 90.0)
           (-90.0 90.0)
  end
  begin
     id 26 
     name rradius
     direction -1 -4.48955e-011 6.34664e-027   
     length 3.58884   
     axis 180 30 90   XYZ
    dof rx
    limits (-10.0 170.0)
  end
  begin
     id 27 
     name rwrist
     direction -1 -4.48966e-011 9.54866e-027   
     length 1.79442   
     axis -7.69462e-015 -90 -90   XYZ
    dof ry
    limits (-180.0 0.0)
  end
  begin
     id 28
     name rhand
     direction -1 -4.48973e-011 1.90973e-026   
     length 0.779235   
     axis -1.21857e-014 -90 -90   XYZ
    dof rx rz
    limits (-90.0 90.0)
           (-45.0 45.0)
  end
  begin
     id 29
     name rfingers
     direction -1 -4.48984e-011 3.81946e-026   
     length 0.62824   
     axis -2.43714e-014 -90 -90   XYZ
    dof rx
    limits (0.0 90.0)
  end
  begin
     id 30
     name rthumb
     direction -0.707107 -6.34968e-011 0.707107   
     length 0.90203   
     axis -90 -45 -2.85299e-015   XYZ
    dof rx rz
    limits (-45.0 45.0)
           (-45.0 45.0)
  end
:hierarchy
  begin
    root lhipjoint rhipjoint lowerback
    lhipjoint lfemur
    lfemur ltibia
    ltibia lfoot
    lfoot ltoes
    rhipjoint rfemur
    rfemur rtibia
    rtibia rfoot
    rfoot rtoes
    lowerback upperback
    upperback thorax
    thorax lowerneck lclavicle rclavicle
    lowerneck upperneck
    upperneck head
    lclavicle lhumerus
    lhumerus lradius
    lradius lwrist
    lwrist lhand lthumb
    lhand lfingers
    rclavicle rhumerus
    rhumerus rradius
    rradius rwrist
    rwrist rhand rthumb
    rhand rfingers
  end

#!OML:ASF I:\Random Stuff\random\construction\7_22_03\Session 2\subj1.ASF
:FULLY-SPECIFIED
:DEGREES
40
root 3.14958 17.4005 -3.88136 -31.3185 85.9387 -36.1968
lowerback -0.0987827 1.45977 0.35661
upperback -3.40686 2.01853 0.639046
thorax -3.45526 1.02564 0.397152
lowerneck -16.0068 1.83168 1.21654
upperneck 13.9066 1.57715 3.95402
head 6.86208 1.20203 1.25114
rclavicle -1.52785e-014 -7.55382e-015
rhumerus -30.409 4.38148 -84.8213
rradius 28.942
rwrist 1.6289
rhand -17.1618 19.7699
rfingers 7.12502
rthumb 9.07918 -10.0147
lclavicle -1.52785e-014 -7.55382e-015
lhumerus -34.7574 -10.0974 92.6864
lradius 34.5536
lwrist 23.8455
lhand -19.4724 56.6276
lfingers 7.12502
lthumb 6.84916 86.4968
rfemur -10.6955 21.6044 19.0044
rtibia 21.496
rfoot -12.9787 -32.5583
rtoes -11.8428
lfemur -13.6096 -25.3961 -14.072
ltibia 29.0393
lfoot -23.7136 30.4144
ltoes -20.2707
41
root 3.14818 17.399 -3.88049 -32.1575 86.0515 -37.0324
lowerback -0.0658514 1.41449 0.29747
upperback -3.38404 1.95686 0.655798
thorax -3.45241 0.996592 0.448663
lowerneck -15.9827 1.84036 1.20793
upperneck 13.7988 1.59504 3.94772
head 6.82268 1.20732 1.25059
rclavicle 1.42317e-014 3.57812e-015
rhumerus -30.6459 3.57804 -84.3941
rradius 27.979
rwrist 2.25632
rhand -16.9861 20.1185
rfingers 7.12502
rthumb 9.24874 -9.6587
lclavicle 1.42317e-014 3.57812e-015
lhumerus -34.89 -9.19433 92.0015
lradius 33.3319
lwrist 23.5895
lhand -19.4661 56.473
lfingers 7.12502
lthumb 6.85521 86.342
rfemur -10.6738 21.4828 19.0019
rtibia 21.5151
rfoot -13.1058 -32.5528
rtoes -11.7084
lfemur -13.651 -25.5824 -14.076
ltibia 29.0775
lfoot -23.7164 30.4965
ltoes -20.4146
42
root 3.14563 17.3985 -3.88199 -32.8357 86.0772 -37.728
lowerback -0.0300582 1.40757 0.316486
upperback -3.37146 1.94829 0.671864
thorax -3.45949 0.99184 0.454007
lowerneck -15.9873 1.84712 1.20813
upperneck 13.7311 1.61159 3.90865
head 6.80149 1.21031 1.23875
rclavicle -1.59525e-014 -5.06901e-015
rhumerus -30.8766 2.51786 -83.852
rradius 26.97
rwrist 3.10801
rhand -16.8856 20.4573
rfingers 7.12502
rthumb 9.34569 -9.31548
lclavicle -1.59525e-014 -5.06901e-015
lhumerus -35.0287 -8.0844 91.208
lradius 32.0958
lwrist 23.0737
lhand -19.3213 56.4445
lfingers 7.12502
lthumb 6.99498 86.3089
rfemur -10.6888 21.4289 19.0129
rtibia 21.5167
rfoot -13.3391 -32.5118
rtoes -11.1957
lfemur -13.6993 -26.0629 -14.0442
ltibia 29.1216
lfoot -23.901 30.8512
ltoes -20.1462
43
root 3.14337 17.3981 -3.8838 -34.1168 86.0973 -39.0138
lowerback 0.0710156 1.41289 0.408881
upperback -3.38236 1.95801 0.668406
thorax -3.52477 0.99368 0.395555
lowerneck -15.96 1.83588 1.19872
upperneck 13.6767 1.60501 3.88032
head 6.77942 1.20279 1.22933
rclavicle 1.54151e-014 3.57812e-015
rhumerus -31.1575 1.189 -83.2266
rradius 25.9754
rwrist 4.18138
rhand -16.8293 20.5695
rfingers 7.12502
rthumb 9.40004 -9.20093
lclavicle 1.54151e-014 3.57812e-015
lhumerus -35.2435 -7.12499 90.4288
lradius 30.9412
lwrist 22.7017
lhand -19.4041 56.4953
lfingers 7.12502
lthumb 6.91506 86.3624
rfemur -10.6706 21.3637 19.0732
rtibia 21.482
rfoot -13.4007 -32.5046
rtoes -10.9141
lfemur -13.7445 -26.3743 -13.9765
ltibia 29.1717
lfoot -23.9766 31.0831
ltoes -19.9664
44
root 3.14323 17.3986 -3.88326 -35.4286 86.1099 -40.3226
lowerback 0.165621 1.40098 0.459172
upperback -3.38311 1.94412 0.679988
thorax -3.5777 0.985153 0.377173
lowerneck -15.8894 1.83505 1.17022
upperneck 13.5717 1.61547 3.87708
head 6.73296 1.20358 1.23167
rclavicle 9.48265e-015 9.54166e-015
rhumerus -31.4616 0.0558676 -82.6195
rradius 25.0497
rwrist 5.11029
rhand -16.7161 20.5464
rfingers 7.12502
rthumb 9.50924 -9.21908
lclavicle 9.48265e-015 9.54166e-015
lhumerus -35.4935 -6.19849 89.6291
lradius 29.8459
lwrist 22.3938
lhand -19.4878 56.6276
lfingers 7.12502
lthumb 6.83432 86.4973
rfemur -10.6299 21.3091 19.1553
rtibia 21.425
rfoot -13.2311 -32.538
rtoes -11.1569
lfemur -13.7848 -26.3892 -13.8985
ltibia 29.2288
lfoot -23.958 31.0617
ltoes -19.841
45
root 3.14409 17.3982 -3.88003 -36.3057 86.0643 -41.2012
lowerback 0.188001 1.39901 0.433582
upperback -3.33526 1.94163 0.739616
thorax -3.54373 0.985349 0.452962
lowerneck -15.9659 1.80592 1.10232
upperneck 13.5526 1.58894 3.87763
head 6.73942 1.18718 1.24087
rclavicle -5.59082e-016 -5.56597e-015
rhumerus -31.7401 -0.873447 -81.9879
rradius 24.215
rwrist 5.83181
rhand -16.6432 20.4979
rfingers 7.12502
rthumb 9.57959 -9.26427
lclavicle -5.59082e-016 -5.56597e-015
lhumerus -35.6957 -5.15985 88.8083
lradius 28.8253
lwrist 22.0357
lhand -19.4575 56.8058
lfingers 7.12502
lthumb 6.86354 86.6746
rfemur -10.6237 21.318 19.2445
rtibia 21.383
rfoot -13.0034 -32.5663
rtoes -11.6563
lfemur -13.8119 -26.5606 -13.8054
ltibia 29.285
lfoot -24.0762 31.1762
ltoes -19.6953
46
root 3.14351 17.3966 -3.87855 -37.0983 86.0434 -41.9945
lowerback 0.231789 1.40548 0.43425
upperback -3.28977 1.95036 0.775854
thorax -3.52269 0.989858 0.489052
lowerneck -16.1727 1.72723 1.03439
upperneck 13.6648 1.4877 3.88234
head 6.81178 1.13845 1.24705
rclavicle -8.47941e-016 -9.93923e-016
rhumerus -32.0998 -1.87962 -81.3077
rradius 23.4887
rwrist 6.49197
rhand -16.5982 20.5947
rfingers 7.12502
rthumb 9.62302 -9.16555
lclavicle -8.47941e-016 -9.93923e-016
lhumerus -35.9259 -4.16827 87.9885
lradius 27.9459
lwrist 21.7613
lhand -19.3158 56.9557
lfingers 7.12502
lthumb 7.00034 86.8199
rfemur -10.6312 21.3063 19.2977
rtibia 21.3666
rfoot -12.9811 -32.5366
rtoes -11.7217
lfemur -13.8391 -26.8125 -13.7393
ltibia 29.3295
lfoot -24.1503 31.3891
ltoes -19.8614
47
root 3.14286 17.3943 -3.87731 -38.295 86.1107 -43.1771
lowerback 0.303487 1.37968 0.434374
upperback -3.24791 1.91519 0.78377
thorax -3.51987 0.971873 0.497006
lowerneck -16.3384 1.67567 0.985548
upperneck 13.7207 1.42285 3.87994
head 6.85867 1.10633 1.25021
rclavicle -5.26469e-015 2.08724e-015
rhumerus -32.551 -2.79586 -80.6694
rradius 22.9315
rwrist 7.00599
rhand -16.5905 20.6277
rfingers 7.12502
rthumb 9.63042 -9.13212
lclavicle -5.26469e-015 2.08724e-015
lhumerus -36.2138 -3.25592 87.1595
lradius 27.1503
lwrist 21.5705
lhand -19.3501 57.0652
lfingers 7.12502
lthumb 6.96721 86.9305
rfemur -10.5993 21.2127 19.332
rtibia 21.3644
rfoot -13.0544 -32.5175
rtoes -11.5716
lfemur -13.8684 -26.8524 -13.7092
ltibia 29.3532
lfoot -23.9639 31.4369
ltoes -20.5238
48
root 3.14246 17.3938 -3.8761 -39.1739 86.1765 -44.0726
lowerback 0.346001 1.35697 0.407969
upperback -3.21278 1.88375 0.795045
thorax -3.50853 0.956736 0.523824
lowerneck -16.3607 1.65316 0.898412
upperneck 13.6279 1.41229 3.88896
head 6.83155 1.09572 1.26525
rclavicle 2.94419e-014 7.7526e-015
rhumerus -33.0199 -3.54199 -80.0608
rradius 22.4577
rwrist 7.38148
rhand -16.5262 20.3469
rfingers 7.12502
rthumb 9.69248 -9.4101
lclavicle 2.94419e-014 7.7526e-015
lhumerus -36.5341 -2.44144 86.3702
lradius 26.4179
lwrist 21.4706
lhand -19.6254 57.114
lfingers 7.12502
lthumb 6.70148 86.988
rfemur -10.6199 21.129 19.3404
rtibia 21.3803
rfoot -13.0697 -32.5535
rtoes -11.6093
lfemur -13.9159 -26.8751 -13.6816
ltibia 29.3502
lfoot -23.8335 31.4392
ltoes -20.7627
49
root 3.14137 17.3975 -3.87612 -38.9482 86.191 -43.9033
lowerback 0.359787 1.36289 0.346595
upperback -3.20242 1.89051 0.809888
thorax -3.50813 0.962022 0.572937
lowerneck -16.2671 1.64451 0.82404
upperneck 13.5124 1.42143 3.89849
head 6.77725 1.0943 1.27871
rclavicle 2.63545e-015 3.37934e-015
rhumerus -33.4782 -4.21393 -79.4374
rradius 21.9703
rwrist 7.72816
rhand -16.4457 20.1408
rfingers 7.12502
rthumb 9.7702 -9.61259
lclavicle 2.63545e-015 3.37934e-015
lhumerus -36.9066 -1.7546 85.6463
lradius 25.8571
lwrist 21.4384
lhand -19.7588 57.2103
lfingers 7.12502
lthumb 6.57271 87.0883
rfemur -10.7154 21.1182 19.2932
rtibia 21.4075
rfoot -13.1114 -32.5555
rtoes -11.5285
lfemur -13.9787 -26.8115 -13.6614
ltibia 29.3265
lfoot -23.9174 31.3124
ltoes -20.188
